<?xml version="1.0" encoding="UTF-8"?>
<svg width="24px" height="24px" viewBox="0 0 24 24" version="1.1" xmlns="http://www.w3.org/2000/svg" xmlns:xlink="http://www.w3.org/1999/xlink">
    <title>蒙版备份</title>
    <defs>
        <rect id="path-1" x="0" y="0" width="24" height="24"></rect>
    </defs>
    <g id="列表搜索区功能特性设计：" stroke="none" stroke-width="1" fill="none" fill-rule="evenodd">
        <g id="列表搜索区-竖排" transform="translate(-842.000000, -238.000000)">
            <g id="筛选区" transform="translate(588.000000, 183.000000)">
                <g id="编组-6" transform="translate(26.000000, 51.000000)">
                    <g id="修改备份" transform="translate(228.000000, 4.000000)">
                        <mask id="mask-2" fill="white">
                            <use xlink:href="#path-1"></use>
                        </mask>
                        <use id="蒙版" fill="#D8D8D8" opacity="0" xlink:href="#path-1"></use>
                        <g id="编组" mask="url(#mask-2)">
                            <g transform="translate(5.000000, 4.000000)">
                                <path d="M12.4834703,15 L7.00009671,11.4741893 L1.51672308,15 L1.34961663,15 C0.604854884,14.9992533 0.00117248068,14.3949324 0,13.6489558 L0,1.35162536 C0.000852669195,0.605497336 0.604510829,0.000854060675 1.34942322,0 L12.6505768,0 C13.3954892,0.000854060675 13.9991473,0.605497336 14,1.35162536 L14,13.6489558 C13.9988278,14.3948569 13.395263,14.9991466 12.6505768,15 L12.4834703,15 Z M1.56467055,1.39789648 C1.44871091,1.39789648 1.35462703,1.4921339 1.35462703,1.60828277 L1.35462703,13.3298269 C1.35484603,13.4012877 1.39126502,13.4677514 1.45133215,13.5063111 L7.00009671,9.79801062 L12.5319451,13.5055362 C12.5920123,13.4669765 12.6284313,13.4005128 12.6286503,13.329052 L12.6286503,1.6084765 C12.6286503,1.49232763 12.5345664,1.39819701 12.4186067,1.39809021 L1.56467055,1.39789648 Z" id="形状" fill="#72A4FF" fill-rule="nonzero"></path>
                                <path d="M2.98025834,3.59477715 L11.0234165,3.59477715 L11.0234165,4.73601622 L2.98025834,4.73601622 L2.98025834,3.59477715 Z M2.98025834,6.23390461 L11.0234165,6.23390461 L11.0234165,7.37514368 L2.98025834,7.37514368 L2.98025834,6.23390461 Z" id="形状" fill="#72A4FF" fill-rule="nonzero"></path>
                            </g>
                        </g>
                    </g>
                </g>
            </g>
        </g>
    </g>
</svg>